<svg width="240" height="32" viewBox="0 0 240 32" fill="none" xmlns="http://www.w3.org/2000/svg">
<path d="M21.56 3.94948C19.6204 3.96054 17.6904 4.22327 15.8176 4.73119L15.5269 4.81422V9.95556L16.0793 9.72217C17.7446 9.02199 19.8404 8.62029 21.8247 8.62029C28.2243 8.62029 28.9157 13.7497 28.9157 15.9549C28.9157 20.5734 26.4623 23.2229 22.1897 23.2229C21.3624 23.2328 20.5374 23.1322 19.7363 22.9237V14.9869H14.6296V26.3962L14.8786 26.4979C17.1551 27.4202 19.9259 27.9282 22.6848 27.9282C30.0115 27.9282 34.3852 23.6261 34.3852 16.4217C34.3852 8.72801 29.4703 3.94873 21.5593 3.94873L21.56 3.94948Z" fill="black"/>
<path d="M63.2273 3.9817C65.1669 3.99314 67.0969 4.25587 68.9697 4.76342L69.2604 4.84645V9.98778L68.708 9.75439C67.0427 9.05422 64.9469 8.65326 62.9627 8.65326C56.5631 8.65326 55.8716 13.7819 55.8716 15.9841C55.8716 20.6033 58.325 23.2529 62.5976 23.2529C63.425 23.2628 64.25 23.1622 65.051 22.9537V15.0192H70.1578V26.4284L69.9087 26.5301C67.6323 27.4525 64.8614 27.9604 62.1025 27.9604C54.7758 27.9604 50.4021 23.6591 50.4021 16.4547C50.4021 8.76098 55.317 3.98096 63.2281 3.98096L63.2273 3.9817Z" fill="black"/>
<path d="M151.924 15.0469C152.817 15.046 153.673 14.6885 154.305 14.0529C154.937 13.4173 155.292 12.5556 155.293 11.6568C155.293 9.78667 153.782 8.22998 151.924 8.22998C151.022 8.23372 150.157 8.59596 149.52 9.2378C148.882 9.87965 148.522 10.7491 148.518 11.6568C148.519 12.1048 148.608 12.5481 148.78 12.9614C148.952 13.3746 149.204 13.7495 149.52 14.0646C149.837 14.3797 150.212 14.6286 150.624 14.7972C151.037 14.9658 151.478 15.0507 151.924 15.0469Z" fill="#E80F61"/>
<path d="M151.924 17.7695C150.078 17.7695 148.518 19.3225 148.518 21.1597C148.518 22.9969 150.045 24.5865 151.924 24.5865C152.813 24.5732 153.662 24.2083 154.287 23.5705C154.911 22.9327 155.261 22.0733 155.261 21.178C155.261 20.2827 154.911 19.4233 154.287 18.7855C153.662 18.1477 152.813 17.7828 151.924 17.7695Z" fill="#E80F61"/>
<path d="M193.567 28.0515C199.984 28.0515 203.375 24.7204 203.375 18.4174V4.08105H198.145V18.6859C198.145 22.2354 197.026 23.4937 193.868 23.4937C190.373 23.4937 189.656 21.7327 189.656 19.0884V4.08105H184.393V19.3577C184.393 25.2074 187.394 28.0508 193.566 28.0508L193.567 28.0515Z" fill="black"/>
<path d="M213.181 27.9707L213.506 27.9759C214.361 27.9886 215.099 27.9998 215.724 27.9998C222.388 27.9998 225.37 24.2596 225.37 20.5508C225.37 18.0515 224.032 16.1328 221.692 15.2867L221.51 15.2209L221.68 15.1289C223.493 14.1482 224.579 12.2803 224.579 10.1305C224.579 5.03625 219.915 3.96729 216.003 3.96729C212.973 3.96729 209.788 4.09894 208.885 4.13859L208.67 4.14906V27.9295H208.858C210.49 27.9295 211.919 27.9512 213.181 27.9707ZM213.53 7.98281H213.612C214.231 7.95513 214.963 7.9267 215.69 7.9267C218.234 7.9267 219.471 8.86476 219.471 10.794C219.471 12.1973 218.755 13.8699 215.344 13.8699C214.613 13.8699 214.086 13.8699 213.612 13.8497H213.53V7.98281H213.53ZM213.53 17.6379H213.613C214.176 17.6162 215.1 17.6162 215.448 17.6162C218.62 17.6162 220.161 18.6455 220.161 20.7625C220.161 22.8794 218.634 24.012 215.862 24.012C215.208 24.012 214.226 23.9873 213.608 23.9334L213.53 23.9267V17.6431V17.6379Z" fill="black"/>
<path d="M105.019 20.6063L108.923 24.2605L116.041 15.7993L123.509 23.9448L127.161 20.132L115.859 8.32031L105.019 20.6063Z" fill="black"/>
<path d="M81.1563 4.0376H75.9142V27.9587H81.1563V4.0376Z" fill="black"/>
<path d="M45.331 4.03027H40.0882V27.9514H45.331V4.03027Z" fill="black"/>
<path d="M86.2809 4.05322V8.67691H92.2307V27.9743H97.4742V8.67691H103.424V4.05322H86.2809Z" fill="black"/>
<path d="M136.916 23.281V4.05322H131.674V27.9743H145.282V23.281H136.916Z" fill="black"/>
<path d="M179.097 28.0511V4.07764H173.718V13.2891H172.007L170.778 18.0542H173.718V28.0511H179.097Z" fill="black"/>
<path d="M167.969 13.2891H164.958V4.07764H159.611V28.0511H164.958V18.0542H166.738L167.969 13.2891Z" fill="black"/>
</svg>
