<?xml version="1.0" standalone="no"?>
<!DOCTYPE svg PUBLIC "-//W3C//DTD SVG 20010904//EN"
 "http://www.w3.org/TR/2001/REC-SVG-20010904/DTD/svg10.dtd">
<svg xmlns="http://www.w3.org/2000/svg" width="221" height="100" viewBox="0 0 221 100" fill="none">
<path fill-rule="evenodd" clip-rule="evenodd" d="M49.0602 85H139.24C139.751 85 140.248 84.9444 140.727 84.8389C141.206 84.9444 141.703 85 142.213 85H193.745C197.576 85 200.682 81.866 200.682 78C200.682 74.134 197.576 71 193.745 71H187.799C183.968 71 180.862 67.866 180.862 64C180.862 60.134 183.968 57 187.799 57H206.628C210.459 57 213.565 53.866 213.565 50C213.565 46.134 210.459 43 206.628 43H184.826C188.657 43 191.763 39.866 191.763 36C191.763 32.134 188.657 29 184.826 29H121.403C125.234 29 128.339 25.866 128.339 22C128.339 18.134 125.234 15 121.403 15H64.916C61.0849 15 57.9791 18.134 57.9791 22C57.9791 25.866 61.0849 29 64.916 29H25.2764C21.4452 29 18.3395 32.134 18.3395 36C18.3395 39.866 21.4452 43 25.2764 43H50.0512C53.8824 43 56.9881 46.134 56.9881 50C56.9881 53.866 53.8824 57 50.0512 57H10.4115C6.58038 57 3.47461 60.134 3.47461 64C3.47461 67.866 6.58038 71 10.4115 71H49.0602C45.229 71 42.1233 74.134 42.1233 78C42.1233 81.866 45.229 85 49.0602 85ZM210.591 85C214.422 85 217.528 81.866 217.528 78C217.528 74.134 214.422 71 210.591 71C206.76 71 203.654 74.134 203.654 78C203.654 81.866 206.76 85 210.591 85Z" fill="#DFE2E6"/>
<path fill-rule="evenodd" clip-rule="evenodd" d="M98.7256 63.3066C98.6482 63.8599 98.6081 64.4252 98.6081 65C98.6081 71.6274 103.932 77 110.5 77C117.068 77 122.392 71.6274 122.392 65C122.392 64.4252 122.352 63.8599 122.274 63.3066H151.131V90C151.131 91.6569 149.8 93 148.158 93H72.8424C71.2004 93 69.8694 91.6569 69.8694 90V63.3066H98.7256Z" fill="white"/>
<path fill-rule="evenodd" clip-rule="evenodd" d="M123.383 63C123.383 70.1797 117.615 76 110.5 76C103.385 76 97.6171 70.1797 97.6171 63C97.6171 62.7674 97.6232 62.5362 97.6351 62.3066H69.8694L79.3437 34.0389C79.7521 32.8202 80.8851 32 82.16 32H138.84C140.115 32 141.248 32.8202 141.656 34.0389L151.131 62.3066H123.365C123.377 62.5362 123.383 62.7674 123.383 63Z" fill="white"/>
<path fill-rule="evenodd" clip-rule="evenodd" d="M121.498 63.9545C121.498 69.5025 116.575 75 110.501 75C104.427 75 99.5032 69.5025 99.5032 63.9545C99.5032 63.7748 99.5084 62.5962 99.5186 62.4188H78.7891L86.8769 42.5755C87.2256 41.6338 88.1927 41 89.281 41H131.721C132.809 41 133.776 41.6338 134.125 42.5755L142.212 62.4188H121.483C121.493 62.5962 121.498 63.7748 121.498 63.9545Z" fill="#DFE2E6"/>
<path fill-rule="evenodd" clip-rule="evenodd" d="M71.1074 62.5123V89C71.1074 89.9665 71.8839 90.75 72.8417 90.75H148.157C149.115 90.75 149.891 89.9665 149.891 89V62.5123L140.482 34.4393C140.244 33.7285 139.583 33.25 138.839 33.25H82.1593C81.4156 33.25 80.7547 33.7285 80.5164 34.4393L71.1074 62.5123Z" stroke="#2196F3" stroke-width="2.5"/>
<path d="M76.3848 62H78.7892M83.7441 62C87.6452 62 91.8553 62 96.3742 62C98.2336 62 98.2336 63.3186 98.2336 64C98.2336 70.6274 103.68 76 110.399 76C117.118 76 122.565 70.6274 122.565 64C122.565 63.3186 122.565 62 124.424 62H149.15" stroke="#2196F3" stroke-width="2.5" stroke-linecap="round" stroke-linejoin="round"/>
<path d="M135.374 9.30273L124.375 21.7559M109.609 5V21.7559V5ZM83.7441 9.30273L94.7438 21.7559L83.7441 9.30273Z" stroke="#2196F3" stroke-width="2.5" stroke-linecap="round" stroke-linejoin="round"/>
</svg>
