<svg width="221" height="100" viewBox="0 0 221 100" fill="none" xmlns="http://www.w3.org/2000/svg">
    <path fill-rule="evenodd" clip-rule="evenodd"
        d="M49.0621 85H139.242C139.753 85 140.25 84.9444 140.729 84.8389C141.208 84.9444 141.705 85 142.215 85H193.747C197.578 85 200.684 81.866 200.684 78C200.684 74.134 197.578 71 193.747 71H187.801C183.97 71 180.864 67.866 180.864 64C180.864 60.134 183.97 57 187.801 57H206.63C210.461 57 213.567 53.866 213.567 50C213.567 46.134 210.461 43 206.63 43H184.828C188.659 43 191.765 39.866 191.765 36C191.765 32.134 188.659 29 184.828 29H121.404C125.236 29 128.341 25.866 128.341 22C128.341 18.134 125.236 15 121.404 15H64.918C61.0868 15 57.9811 18.134 57.9811 22C57.9811 25.866 61.0868 29 64.918 29H25.2784C21.4472 29 18.3414 32.134 18.3414 36C18.3414 39.866 21.4472 43 25.2784 43H50.0531C53.8843 43 56.9901 46.134 56.9901 50C56.9901 53.866 53.8843 57 50.0531 57H10.4135C6.58233 57 3.47656 60.134 3.47656 64C3.47656 67.866 6.58233 71 10.4135 71H49.0621C45.231 71 42.1252 74.134 42.1252 78C42.1252 81.866 45.231 85 49.0621 85ZM210.594 85C214.425 85 217.531 81.866 217.531 78C217.531 74.134 214.425 71 210.594 71C206.763 71 203.657 74.134 203.657 78C203.657 81.866 206.763 85 210.594 85Z"
        fill="#CCD4D6" />
    <path fill-rule="evenodd" clip-rule="evenodd"
        d="M98.7273 63.3066C98.6499 63.8599 98.6098 64.4252 98.6098 65C98.6098 71.6274 103.934 77 110.502 77C117.069 77 122.394 71.6274 122.394 65C122.394 64.4252 122.354 63.8599 122.276 63.3066H151.132V90C151.132 91.6569 149.801 93 148.159 93H72.8441C71.2021 93 69.8711 91.6569 69.8711 90V63.3066H98.7273Z"
        fill="white" />
    <path fill-rule="evenodd" clip-rule="evenodd"
        d="M123.385 63C123.385 70.1797 117.617 76 110.502 76C103.387 76 97.6188 70.1797 97.6188 63C97.6188 62.7674 97.6249 62.5362 97.6369 62.3066H69.8711L79.3454 34.0389C79.7538 32.8202 80.8868 32 82.1617 32H138.842C140.117 32 141.25 32.8202 141.658 34.0389L151.132 62.3066H123.367C123.379 62.5362 123.385 62.7674 123.385 63Z"
        fill="white" />
    <path fill-rule="evenodd" clip-rule="evenodd"
        d="M121.498 63.9545C121.498 69.5025 116.575 75 110.501 75C104.427 75 99.5032 69.5025 99.5032 63.9545C99.5032 63.7748 99.5084 62.5962 99.5186 62.4188H78.7891L86.8769 42.5755C87.2256 41.6338 88.1927 41 89.281 41H131.721C132.809 41 133.776 41.6338 134.125 42.5755L142.212 62.4188H121.483C121.493 62.5962 121.498 63.7748 121.498 63.9545Z"
        fill="#CCD4D6" />
    <path fill-rule="evenodd" clip-rule="evenodd"
        d="M71.1094 62.5123V89C71.1094 89.9665 71.8858 90.75 72.8436 90.75H148.159C149.117 90.75 149.893 89.9665 149.893 89V62.5123L140.484 34.4393C140.246 33.7285 139.585 33.25 138.841 33.25H82.1612C81.4175 33.25 80.7567 33.7285 80.5184 34.4393L71.1094 62.5123Z"
        stroke="#008075" stroke-width="2.5" />
    <path
        d="M76.3828 62H78.7872M83.7422 62C87.6433 62 91.8533 62 96.3723 62C98.2316 62 98.2316 63.3186 98.2316 64C98.2316 70.6274 103.678 76 110.397 76C117.116 76 122.563 70.6274 122.563 64C122.563 63.3186 122.563 62 124.422 62H149.148"
        stroke="#008075" stroke-width="2.5" stroke-linecap="round" stroke-linejoin="round" />
    <path d="M135.372 9.30273L124.373 21.7559M109.607 5V21.7559V5ZM83.7422 9.30273L94.7418 21.7559L83.7422 9.30273Z"
        stroke="#008075" stroke-width="2.5" stroke-linecap="round" stroke-linejoin="round" />
</svg>