<svg width="324" height="69" viewBox="0 0 324 69" fill="none" xmlns="http://www.w3.org/2000/svg">
<path d="M21.3824 25.68C21.3824 27.504 21.1584 28.96 20.7104 30.048C20.2624 31.104 19.6384 31.84 18.8384 32.256C18.0704 32.672 17.0464 32.88 15.7664 32.88C13.8784 32.88 12.5024 32.384 11.6384 31.392C10.8064 30.368 10.3744 28.576 10.3424 26.016L10.2464 8.304H6.16638C4.15038 8.304 2.63038 7.98401 1.60638 7.34401C0.614384 6.70401 0.118382 5.568 0.118382 3.936C0.118382 2.94401 0.310382 2.16 0.694382 1.584C1.11038 1.008 1.71839 0.608004 2.51839 0.384003C3.31839 0.128002 4.39038 0 5.73438 0H26.2784C28.0704 0 29.3664 0.31999 30.1664 0.959991C30.9664 1.59999 31.3664 2.704 31.3664 4.272C31.3664 5.328 31.1264 6.16001 30.6464 6.76801C30.1984 7.34401 29.5904 7.74401 28.8224 7.96801C28.0544 8.19201 27.0624 8.304 25.8464 8.304H21.3824V25.68Z" fill="black"/>
<path d="M39.8463 33.168C35.9423 33.168 32.7103 32.16 30.1503 30.144C27.6223 28.128 26.3583 25.376 26.3583 21.888C26.3583 18.112 27.6063 15.136 30.1023 12.96C32.6303 10.752 35.8783 9.64801 39.8463 9.64801C43.5903 9.64801 46.3263 10.32 48.0543 11.664C49.8143 12.976 50.6943 14.784 50.6943 17.088C50.6943 17.536 50.6303 17.968 50.5023 18.384C50.4063 18.8 50.2303 19.216 49.9743 19.632C49.7503 20.016 49.4303 20.384 49.0143 20.736C48.6303 21.056 48.1823 21.36 47.6703 21.648C47.1583 21.904 46.5503 22.112 45.8463 22.272C45.1423 22.4 44.3903 22.464 43.5903 22.464L36.8223 22.512C37.1423 23.536 37.7183 24.352 38.5503 24.96C39.3823 25.536 40.4383 25.824 41.7183 25.824C43.0943 25.824 44.5023 25.648 45.9423 25.296C46.5503 25.136 47.2063 24.88 47.9103 24.528C48.6463 24.176 49.1743 24 49.4943 24C50.0383 24 50.4543 24.16 50.7423 24.48C51.0623 24.8 51.2223 25.2 51.2223 25.68C51.2223 26.256 50.9663 26.96 50.4543 27.792C49.9423 28.592 49.2223 29.408 48.2943 30.24C47.3983 31.04 46.1983 31.728 44.6943 32.304C43.1903 32.88 41.5743 33.168 39.8463 33.168ZM36.5823 19.44C38.7903 19.408 39.9903 19.392 40.1823 19.392C40.6623 19.392 41.0143 19.104 41.2383 18.528C41.3983 18.112 41.4783 17.536 41.4783 16.8C41.4783 14.784 40.8703 13.776 39.6543 13.776C39.2063 13.776 38.7583 14.016 38.3103 14.496C37.8943 14.976 37.5263 15.664 37.2063 16.56C36.8863 17.424 36.6783 18.384 36.5823 19.44Z" fill="black"/>
<path d="M62.2851 33.168C59.7571 33.168 57.6611 32.144 55.9971 30.096C54.3331 28.016 53.5011 25.184 53.5011 21.6C53.5011 17.952 54.3171 15.056 55.9491 12.912C57.6131 10.736 59.7251 9.64801 62.2851 9.64801C64.8771 9.64801 67.2771 10.56 69.4851 12.384C70.3491 10.784 71.7411 9.98401 73.6611 9.98401C75.3891 9.98401 76.7331 10.368 77.6931 11.136C78.6531 11.872 79.1331 13.248 79.1331 15.264V27.744C79.1331 29.664 78.7331 31.008 77.9331 31.776C77.1331 32.512 75.7251 32.88 73.7091 32.88C71.5971 32.88 70.2051 32.288 69.5331 31.104C67.4851 32.48 65.0691 33.168 62.2851 33.168ZM68.8131 16.992C68.2691 16.064 67.5651 15.6 66.7011 15.6C65.8691 15.6 65.1971 16.208 64.6851 17.424C64.1731 18.64 63.9171 20.032 63.9171 21.6C63.9171 23.072 64.1571 24.384 64.6371 25.536C65.1171 26.688 65.7891 27.264 66.6531 27.264C67.5491 27.264 68.2691 26.832 68.8131 25.968V16.992Z" fill="black"/>
<path d="M110.61 20.208C110.61 18.416 109.89 17.52 108.45 17.52C107.81 17.52 107.33 17.888 107.01 18.624C106.69 19.36 106.53 20.288 106.53 21.408C106.53 23.104 106.498 24.512 106.434 25.632C106.402 26.752 106.306 27.76 106.146 28.656C105.986 29.552 105.794 30.256 105.57 30.768C105.346 31.28 105.042 31.712 104.658 32.064C104.274 32.384 103.842 32.608 103.362 32.736C102.882 32.832 102.274 32.88 101.538 32.88C100.418 32.88 99.5062 32.72 98.8022 32.4C98.1302 32.08 97.6503 31.632 97.3623 31.056C97.0743 30.48 96.9303 29.76 96.9303 28.896V20.208C96.9303 18.416 96.2103 17.52 94.7703 17.52C94.1943 17.52 93.7143 17.856 93.3303 18.528C92.9783 19.168 92.8022 20.016 92.8022 21.072V27.744C92.8022 29.664 92.4023 31.008 91.6023 31.776C90.8023 32.512 89.3943 32.88 87.3783 32.88C85.4903 32.88 84.1943 32.448 83.4903 31.584C82.8183 30.688 82.4823 29.232 82.4823 27.216V15.408C82.4823 13.776 82.9143 12.464 83.7783 11.472C84.6743 10.48 85.8583 9.98401 87.3303 9.98401C89.9543 9.98401 91.6183 10.832 92.3223 12.528C93.5383 11.632 94.7223 11.008 95.8743 10.656C97.0583 10.304 98.4343 10.128 100.002 10.128C102.37 10.128 104.082 11.152 105.138 13.2C105.298 13.072 105.458 12.944 105.618 12.816C108.082 11.024 111.106 10.128 114.69 10.128C116.962 10.128 118.594 10.992 119.586 12.72C120.578 14.448 121.074 17.344 121.074 21.408C121.074 23.104 121.042 24.512 120.978 25.632C120.946 26.752 120.85 27.76 120.69 28.656C120.53 29.552 120.322 30.256 120.066 30.768C119.842 31.28 119.506 31.712 119.058 32.064C118.642 32.384 118.162 32.608 117.618 32.736C117.106 32.832 116.45 32.88 115.65 32.88C114.434 32.88 113.442 32.72 112.674 32.4C111.938 32.08 111.41 31.632 111.09 31.056C110.77 30.48 110.61 29.76 110.61 28.896V20.208Z" fill="black"/>
<path d="M164.001 20.208C164.001 18.416 163.281 17.52 161.841 17.52C161.201 17.52 160.721 17.888 160.401 18.624C160.081 19.36 159.921 20.288 159.921 21.408C159.921 23.104 159.889 24.512 159.825 25.632C159.793 26.752 159.697 27.76 159.537 28.656C159.377 29.552 159.185 30.256 158.961 30.768C158.737 31.28 158.433 31.712 158.049 32.064C157.665 32.384 157.233 32.608 156.753 32.736C156.273 32.832 155.665 32.88 154.929 32.88C153.809 32.88 152.897 32.72 152.193 32.4C151.521 32.08 151.041 31.632 150.753 31.056C150.465 30.48 150.321 29.76 150.321 28.896V20.208C150.321 18.416 149.601 17.52 148.161 17.52C147.585 17.52 147.105 17.856 146.721 18.528C146.369 19.168 146.193 20.016 146.193 21.072V27.744C146.193 29.664 145.793 31.008 144.993 31.776C144.193 32.512 142.785 32.88 140.769 32.88C138.881 32.88 137.585 32.448 136.881 31.584C136.209 30.688 135.873 29.232 135.873 27.216V15.408C135.873 13.776 136.305 12.464 137.169 11.472C138.065 10.48 139.249 9.98401 140.721 9.98401C143.345 9.98401 145.009 10.832 145.713 12.528C146.929 11.632 148.113 11.008 149.265 10.656C150.449 10.304 151.825 10.128 153.393 10.128C155.761 10.128 157.473 11.152 158.529 13.2C158.689 13.072 158.849 12.944 159.009 12.816C161.473 11.024 164.497 10.128 168.081 10.128C170.353 10.128 171.985 10.992 172.977 12.72C173.969 14.448 174.465 17.344 174.465 21.408C174.465 23.104 174.433 24.512 174.369 25.632C174.337 26.752 174.241 27.76 174.081 28.656C173.921 29.552 173.713 30.256 173.457 30.768C173.233 31.28 172.897 31.712 172.449 32.064C172.033 32.384 171.553 32.608 171.009 32.736C170.497 32.832 169.841 32.88 169.041 32.88C167.825 32.88 166.833 32.72 166.065 32.4C165.329 32.08 164.801 31.632 164.481 31.056C164.161 30.48 164.001 29.76 164.001 28.896V20.208Z" fill="black"/>
<path d="M192.994 21.504C192.994 19.84 192.786 18.384 192.37 17.136C191.954 15.856 191.346 15.216 190.546 15.216C190.002 15.216 189.522 15.536 189.106 16.176C188.69 16.816 188.386 17.6 188.194 18.528C188.002 19.456 187.906 20.448 187.906 21.504C187.906 23.136 188.13 24.576 188.578 25.824C189.026 27.04 189.666 27.648 190.498 27.648C191.33 27.648 191.954 27.04 192.37 25.824C192.786 24.608 192.994 23.168 192.994 21.504ZM190.498 33.216C188.002 33.216 185.746 32.768 183.73 31.872C181.746 30.976 180.146 29.632 178.93 27.84C177.746 26.048 177.154 23.952 177.154 21.552C177.154 17.904 178.402 15.008 180.898 12.864C183.394 10.72 186.594 9.64801 190.498 9.64801C194.402 9.64801 197.586 10.72 200.05 12.864C202.514 15.008 203.746 17.904 203.746 21.552C203.746 25.168 202.482 28.016 199.954 30.096C197.458 32.176 194.306 33.216 190.498 33.216Z" fill="black"/>
<path d="M221.775 21.504C221.775 19.84 221.567 18.384 221.151 17.136C220.735 15.856 220.127 15.216 219.327 15.216C218.783 15.216 218.303 15.536 217.887 16.176C217.471 16.816 217.167 17.6 216.975 18.528C216.783 19.456 216.687 20.448 216.687 21.504C216.687 23.136 216.911 24.576 217.359 25.824C217.807 27.04 218.447 27.648 219.279 27.648C220.111 27.648 220.735 27.04 221.151 25.824C221.567 24.608 221.775 23.168 221.775 21.504ZM219.279 33.216C216.783 33.216 214.527 32.768 212.511 31.872C210.527 30.976 208.927 29.632 207.711 27.84C206.527 26.048 205.935 23.952 205.935 21.552C205.935 17.904 207.183 15.008 209.679 12.864C212.175 10.72 215.375 9.64801 219.279 9.64801C223.183 9.64801 226.367 10.72 228.831 12.864C231.295 15.008 232.527 17.904 232.527 21.552C232.527 25.168 231.263 28.016 228.735 30.096C226.239 32.176 223.087 33.216 219.279 33.216Z" fill="black"/>
<path d="M260.637 25.68C260.637 28.272 260.205 30.128 259.341 31.248C258.477 32.336 257.148 32.88 255.357 32.88C253.309 32.88 251.901 32.24 251.133 30.96C249.053 32.464 246.541 33.216 243.597 33.216C241.101 33.216 239.021 32.192 237.357 30.144C235.693 28.064 234.861 25.232 234.861 21.648C234.861 18 235.676 15.104 237.309 12.96C238.941 10.784 241.037 9.696 243.597 9.696C245.901 9.696 248.061 10.432 250.077 11.904V5.76001C250.077 3.80801 250.557 2.368 251.517 1.44C252.477 0.480001 253.757 0 255.357 0C257.117 0 258.429 0.351999 259.293 1.056C260.189 1.76 260.637 3.18401 260.637 5.32801V25.68ZM250.173 25.968L250.125 16.992C249.581 16.096 248.877 15.648 248.013 15.648C247.469 15.648 246.973 15.952 246.525 16.56C246.109 17.168 245.789 17.92 245.565 18.816C245.341 19.712 245.228 20.656 245.228 21.648C245.228 23.12 245.469 24.432 245.949 25.584C246.429 26.736 247.101 27.312 247.965 27.312C248.125 27.312 248.284 27.296 248.444 27.264C248.604 27.232 248.748 27.2 248.876 27.168C249.005 27.104 249.133 27.04 249.261 26.976C249.389 26.88 249.501 26.784 249.597 26.688C249.693 26.592 249.788 26.48 249.884 26.352C249.98 26.224 250.077 26.096 250.173 25.968Z" fill="black"/>
<path d="M3.264 58.1076V52.4436C2.464 52.4116 1.824 52.2836 1.344 52.0596C0.864 51.8036 0.512 51.4836 0.288 51.0996C0.0960001 50.7156 0 50.2356 0 49.6596C0 47.8356 1.104 46.8436 3.312 46.6836V42.2196C3.312 41.0036 4.192 39.9156 5.952 38.9556C7.712 37.9636 9.456 37.4676 11.184 37.4676C12.24 37.4676 12.928 37.7716 13.248 38.3796C13.568 38.9876 13.728 39.8996 13.728 41.1156L13.776 46.6356H15.072C16.832 46.6356 18.032 46.8756 18.672 47.3556C19.344 47.8036 19.68 48.6356 19.68 49.8516C19.68 50.3636 19.584 50.7956 19.392 51.1476C19.2 51.4996 18.88 51.7716 18.432 51.9636C18.016 52.1556 17.504 52.2996 16.896 52.3956C16.288 52.4596 15.536 52.4916 14.64 52.4916H13.776V57.7716C13.776 58.2836 13.792 58.7156 13.824 59.0676C13.888 59.3876 13.968 59.6436 14.064 59.8356C14.16 60.0276 14.288 60.1556 14.448 60.2196C14.64 60.2836 14.864 60.3156 15.12 60.3156C15.504 60.3156 15.824 60.1876 16.08 59.9316C16.336 59.6436 16.528 59.3396 16.656 59.0196C16.816 58.6676 17.008 58.3636 17.232 58.1076C17.488 57.8196 17.776 57.6756 18.096 57.6756C18.832 57.6756 19.392 57.8516 19.776 58.2036C20.192 58.5556 20.4 58.9876 20.4 59.4996C20.4 60.3636 20.224 61.2916 19.872 62.2836C19.552 63.2756 19.072 64.2356 18.432 65.1636C17.792 66.0916 16.896 66.8596 15.744 67.4676C14.624 68.0756 13.36 68.3796 11.952 68.3796C8.784 68.3796 6.544 67.5796 5.232 65.9796C3.92 64.3796 3.264 61.7556 3.264 58.1076Z" fill="black"/>
<path d="M39.9349 55.5156C39.9349 53.6916 39.2309 52.7796 37.8229 52.7796C37.5669 52.7796 37.3269 52.8116 37.1029 52.8756C36.9109 52.9396 36.7189 53.0196 36.5269 53.1156C36.3669 53.2116 36.2069 53.3556 36.0469 53.5476C35.9189 53.7076 35.7909 53.8996 35.6629 54.1236C35.5669 54.3156 35.4869 54.5556 35.4229 54.8436C35.3909 55.1316 35.3749 55.4516 35.3749 55.8036V61.0836C35.3749 63.7076 34.9429 65.5796 34.0789 66.6996C33.2469 67.7876 31.9669 68.3316 30.2389 68.3316C28.4469 68.3316 27.1349 67.8356 26.3029 66.8436C25.4709 65.8196 25.0549 64.0276 25.0549 61.4676L24.9589 43.0196C24.9589 41.0356 25.4389 39.5796 26.3989 38.6516C27.3589 37.7236 28.6389 37.2596 30.2389 37.2596C31.9349 37.2596 33.2149 37.6116 34.0789 38.3156C34.9429 39.0196 35.3749 40.4436 35.3749 42.5876V47.5476C37.7429 46.1076 40.6229 45.3876 44.0149 45.3876C45.5509 45.3876 46.7829 45.7876 47.7109 46.5876C48.6389 47.3556 49.3269 48.5876 49.7749 50.2836C50.2229 51.9796 50.4469 54.2036 50.4469 56.9556C50.4469 58.3636 50.4149 59.5796 50.3509 60.6036C50.3189 61.6276 50.2549 62.5716 50.1589 63.4356C50.0629 64.2676 49.9189 64.9556 49.7269 65.4996C49.5349 66.0436 49.3109 66.5076 49.0549 66.8916C48.7989 67.2756 48.4629 67.5796 48.0469 67.8036C47.6629 67.9956 47.2309 68.1396 46.7509 68.2356C46.2709 68.3316 45.6949 68.3796 45.0229 68.3796C43.2309 68.3796 41.9349 68.0596 41.1349 67.4196C40.3669 66.7476 39.9829 65.7396 39.9829 64.3956L39.9349 55.5156Z" fill="black"/>
<path d="M68.064 68.6676C64.16 68.6676 60.928 67.6596 58.368 65.6436C55.84 63.6276 54.576 60.8756 54.576 57.3876C54.576 53.6116 55.824 50.6356 58.32 48.4596C60.848 46.2516 64.096 45.1476 68.064 45.1476C71.808 45.1476 74.544 45.8196 76.272 47.1636C78.032 48.4756 78.912 50.2836 78.912 52.5876C78.912 53.0356 78.848 53.4676 78.72 53.8836C78.624 54.2996 78.448 54.7156 78.192 55.1316C77.968 55.5156 77.648 55.8836 77.232 56.2356C76.848 56.5556 76.4 56.8596 75.888 57.1476C75.376 57.4036 74.768 57.6116 74.064 57.7716C73.36 57.8996 72.608 57.9636 71.808 57.9636L65.04 58.0116C65.36 59.0356 65.936 59.8516 66.768 60.4596C67.6 61.0356 68.656 61.3236 69.936 61.3236C71.312 61.3236 72.72 61.1476 74.16 60.7956C74.768 60.6356 75.424 60.3796 76.128 60.0276C76.864 59.6756 77.392 59.4996 77.712 59.4996C78.256 59.4996 78.672 59.6596 78.96 59.9796C79.28 60.2996 79.44 60.6996 79.44 61.1796C79.44 61.7556 79.184 62.4596 78.672 63.2916C78.16 64.0916 77.44 64.9076 76.512 65.7396C75.616 66.5396 74.416 67.2276 72.912 67.8036C71.408 68.3796 69.792 68.6676 68.064 68.6676ZM64.8 54.9396C67.008 54.9076 68.208 54.8916 68.4 54.8916C68.88 54.8916 69.232 54.6036 69.456 54.0276C69.616 53.6116 69.696 53.0356 69.696 52.2996C69.696 50.2836 69.088 49.2756 67.872 49.2756C67.424 49.2756 66.976 49.5156 66.528 49.9956C66.112 50.4756 65.744 51.1636 65.424 52.0596C65.104 52.9236 64.896 53.8836 64.8 54.9396Z" fill="black"/>
<path d="M93.7309 63.2436C93.7309 65.1636 93.3309 66.5076 92.5309 67.2756C91.7309 68.0116 90.3069 68.3796 88.2589 68.3796C86.3709 68.3796 85.0909 67.9476 84.4189 67.0836C83.7469 66.1876 83.4109 64.7316 83.4109 62.7156V50.9076C83.4109 49.8196 83.6029 48.8756 83.9869 48.0756C84.3709 47.2436 84.9309 46.6036 85.6669 46.1556C86.4029 45.7076 87.2669 45.4836 88.2589 45.4836C90.6909 45.4836 92.2909 46.1876 93.0589 47.5956C94.9149 46.1876 96.7069 45.4836 98.4349 45.4836C101.795 45.4836 103.475 47.0836 103.475 50.2836C103.475 51.5636 103.107 52.6036 102.371 53.4036C101.635 54.2036 100.675 54.6036 99.4909 54.6036C98.7869 54.6036 98.2109 54.4596 97.7629 54.1716C97.3469 53.8836 96.9469 53.5956 96.5629 53.3076C96.2109 53.0196 95.7949 52.8756 95.3149 52.8756C94.6109 52.8756 94.0829 53.1156 93.7309 53.5956V63.2436Z" fill="black"/>
<path d="M134.516 55.7076C134.516 53.9156 133.796 53.0196 132.355 53.0196C131.715 53.0196 131.236 53.3876 130.915 54.1236C130.595 54.8596 130.436 55.7876 130.436 56.9076C130.436 58.6036 130.404 60.0116 130.34 61.1316C130.308 62.2516 130.212 63.2596 130.051 64.1556C129.891 65.0516 129.699 65.7556 129.475 66.2676C129.251 66.7796 128.948 67.2116 128.564 67.5636C128.18 67.8836 127.747 68.1076 127.268 68.2356C126.787 68.3316 126.18 68.3796 125.444 68.3796C124.324 68.3796 123.411 68.2196 122.707 67.8996C122.035 67.5796 121.556 67.1316 121.268 66.5556C120.979 65.9796 120.836 65.2596 120.836 64.3956V55.7076C120.836 53.9156 120.116 53.0196 118.675 53.0196C118.1 53.0196 117.62 53.3556 117.236 54.0276C116.884 54.6676 116.707 55.5156 116.707 56.5716V63.2436C116.707 65.1636 116.308 66.5076 115.507 67.2756C114.707 68.0116 113.299 68.3796 111.284 68.3796C109.396 68.3796 108.1 67.9476 107.396 67.0836C106.724 66.1876 106.387 64.7316 106.387 62.7156V50.9076C106.387 49.2756 106.82 47.9636 107.684 46.9716C108.579 45.9796 109.764 45.4836 111.236 45.4836C113.86 45.4836 115.523 46.3316 116.228 48.0276C117.443 47.1316 118.628 46.5076 119.78 46.1556C120.964 45.8036 122.34 45.6276 123.908 45.6276C126.275 45.6276 127.988 46.6516 129.044 48.6996C129.204 48.5716 129.363 48.4436 129.523 48.3156C131.988 46.5236 135.012 45.6276 138.596 45.6276C140.868 45.6276 142.499 46.4916 143.492 48.2196C144.484 49.9476 144.98 52.8436 144.98 56.9076C144.98 58.6036 144.947 60.0116 144.883 61.1316C144.852 62.2516 144.756 63.2596 144.596 64.1556C144.436 65.0516 144.227 65.7556 143.971 66.2676C143.747 66.7796 143.411 67.2116 142.964 67.5636C142.548 67.8836 142.068 68.1076 141.523 68.2356C141.012 68.3316 140.355 68.3796 139.555 68.3796C138.339 68.3796 137.348 68.2196 136.579 67.8996C135.844 67.5796 135.315 67.1316 134.995 66.5556C134.676 65.9796 134.516 65.2596 134.516 64.3956V55.7076Z" fill="black"/>
<path d="M165.009 57.0036C165.009 55.3396 164.801 53.8836 164.385 52.6356C163.969 51.3556 163.361 50.7156 162.561 50.7156C162.017 50.7156 161.537 51.0356 161.121 51.6756C160.705 52.3156 160.401 53.0996 160.209 54.0276C160.017 54.9556 159.921 55.9476 159.921 57.0036C159.921 58.6356 160.145 60.0756 160.593 61.3236C161.041 62.5396 161.681 63.1476 162.513 63.1476C163.345 63.1476 163.969 62.5396 164.385 61.3236C164.801 60.1076 165.009 58.6676 165.009 57.0036ZM162.513 68.7156C160.017 68.7156 157.761 68.2676 155.745 67.3716C153.761 66.4756 152.161 65.1316 150.945 63.3396C149.761 61.5476 149.169 59.4516 149.169 57.0516C149.169 53.4036 150.417 50.5076 152.913 48.3636C155.409 46.2196 158.609 45.1476 162.513 45.1476C166.417 45.1476 169.601 46.2196 172.065 48.3636C174.529 50.5076 175.761 53.4036 175.761 57.0516C175.761 60.6676 174.497 63.5156 171.969 65.5956C169.473 67.6756 166.321 68.7156 162.513 68.7156Z" fill="black"/>
<path d="M208.25 55.7076C208.25 53.9156 207.53 53.0196 206.09 53.0196C205.45 53.0196 204.97 53.3876 204.65 54.1236C204.33 54.8596 204.17 55.7876 204.17 56.9076C204.17 58.6036 204.138 60.0116 204.074 61.1316C204.042 62.2516 203.946 63.2596 203.786 64.1556C203.626 65.0516 203.434 65.7556 203.21 66.2676C202.986 66.7796 202.682 67.2116 202.298 67.5636C201.914 67.8836 201.482 68.1076 201.002 68.2356C200.522 68.3316 199.914 68.3796 199.178 68.3796C198.058 68.3796 197.146 68.2196 196.442 67.8996C195.77 67.5796 195.29 67.1316 195.002 66.5556C194.714 65.9796 194.57 65.2596 194.57 64.3956V55.7076C194.57 53.9156 193.85 53.0196 192.41 53.0196C191.834 53.0196 191.354 53.3556 190.97 54.0276C190.618 54.6676 190.442 55.5156 190.442 56.5716V63.2436C190.442 65.1636 190.042 66.5076 189.242 67.2756C188.442 68.0116 187.034 68.3796 185.018 68.3796C183.13 68.3796 181.834 67.9476 181.13 67.0836C180.458 66.1876 180.122 64.7316 180.122 62.7156V50.9076C180.122 49.2756 180.554 47.9636 181.418 46.9716C182.314 45.9796 183.498 45.4836 184.97 45.4836C187.594 45.4836 189.258 46.3316 189.962 48.0276C191.178 47.1316 192.362 46.5076 193.514 46.1556C194.698 45.8036 196.074 45.6276 197.642 45.6276C200.01 45.6276 201.722 46.6516 202.778 48.6996C202.938 48.5716 203.098 48.4436 203.258 48.3156C205.722 46.5236 208.746 45.6276 212.33 45.6276C214.602 45.6276 216.234 46.4916 217.226 48.2196C218.218 49.9476 218.714 52.8436 218.714 56.9076C218.714 58.6036 218.682 60.0116 218.618 61.1316C218.586 62.2516 218.49 63.2596 218.33 64.1556C218.17 65.0516 217.962 65.7556 217.706 66.2676C217.482 66.7796 217.146 67.2116 216.698 67.5636C216.282 67.8836 215.802 68.1076 215.258 68.2356C214.746 68.3316 214.09 68.3796 213.29 68.3796C212.074 68.3796 211.082 68.2196 210.314 67.8996C209.578 67.5796 209.05 67.1316 208.73 66.5556C208.41 65.9796 208.25 65.2596 208.25 64.3956V55.7076Z" fill="black"/>
<path d="M236.439 68.6676C232.535 68.6676 229.303 67.6596 226.743 65.6436C224.215 63.6276 222.951 60.8756 222.951 57.3876C222.951 53.6116 224.199 50.6356 226.695 48.4596C229.223 46.2516 232.471 45.1476 236.439 45.1476C240.183 45.1476 242.919 45.8196 244.647 47.1636C246.407 48.4756 247.287 50.2836 247.287 52.5876C247.287 53.0356 247.223 53.4676 247.095 53.8836C246.999 54.2996 246.823 54.7156 246.567 55.1316C246.343 55.5156 246.023 55.8836 245.607 56.2356C245.223 56.5556 244.775 56.8596 244.263 57.1476C243.751 57.4036 243.143 57.6116 242.439 57.7716C241.735 57.8996 240.983 57.9636 240.183 57.9636L233.415 58.0116C233.735 59.0356 234.311 59.8516 235.143 60.4596C235.975 61.0356 237.031 61.3236 238.311 61.3236C239.687 61.3236 241.095 61.1476 242.535 60.7956C243.143 60.6356 243.799 60.3796 244.503 60.0276C245.239 59.6756 245.767 59.4996 246.087 59.4996C246.631 59.4996 247.047 59.6596 247.335 59.9796C247.655 60.2996 247.815 60.6996 247.815 61.1796C247.815 61.7556 247.559 62.4596 247.047 63.2916C246.535 64.0916 245.815 64.9076 244.887 65.7396C243.991 66.5396 242.791 67.2276 241.287 67.8036C239.783 68.3796 238.167 68.6676 236.439 68.6676ZM233.175 54.9396C235.383 54.9076 236.583 54.8916 236.775 54.8916C237.255 54.8916 237.607 54.6036 237.831 54.0276C237.991 53.6116 238.071 53.0356 238.071 52.2996C238.071 50.2836 237.463 49.2756 236.247 49.2756C235.799 49.2756 235.351 49.5156 234.903 49.9956C234.487 50.4756 234.119 51.1636 233.799 52.0596C233.479 52.9236 233.271 53.8836 233.175 54.9396Z" fill="black"/>
<path d="M254.186 58.1076V52.4436C253.386 52.4116 252.746 52.2836 252.266 52.0596C251.786 51.8036 251.434 51.4836 251.21 51.0996C251.018 50.7156 250.922 50.2356 250.922 49.6596C250.922 47.8356 252.026 46.8436 254.234 46.6836V42.2196C254.234 41.0036 255.114 39.9156 256.874 38.9556C258.634 37.9636 260.378 37.4676 262.106 37.4676C263.162 37.4676 263.85 37.7716 264.17 38.3796C264.49 38.9876 264.65 39.8996 264.65 41.1156L264.698 46.6356H265.994C267.754 46.6356 268.954 46.8756 269.594 47.3556C270.266 47.8036 270.602 48.6356 270.602 49.8516C270.602 50.3636 270.506 50.7956 270.314 51.1476C270.122 51.4996 269.802 51.7716 269.354 51.9636C268.938 52.1556 268.426 52.2996 267.818 52.3956C267.21 52.4596 266.458 52.4916 265.562 52.4916H264.698V57.7716C264.698 58.2836 264.714 58.7156 264.746 59.0676C264.81 59.3876 264.89 59.6436 264.986 59.8356C265.082 60.0276 265.21 60.1556 265.37 60.2196C265.562 60.2836 265.786 60.3156 266.042 60.3156C266.426 60.3156 266.746 60.1876 267.002 59.9316C267.258 59.6436 267.45 59.3396 267.578 59.0196C267.738 58.6676 267.93 58.3636 268.154 58.1076C268.41 57.8196 268.698 57.6756 269.018 57.6756C269.754 57.6756 270.314 57.8516 270.698 58.2036C271.114 58.5556 271.322 58.9876 271.322 59.4996C271.322 60.3636 271.146 61.2916 270.794 62.2836C270.474 63.2756 269.994 64.2356 269.354 65.1636C268.714 66.0916 267.818 66.8596 266.666 67.4676C265.546 68.0756 264.282 68.3796 262.874 68.3796C259.706 68.3796 257.466 67.5796 256.154 65.9796C254.842 64.3796 254.186 61.7556 254.186 58.1076Z" fill="black"/>
<path d="M288.33 68.6676C284.426 68.6676 281.194 67.6596 278.634 65.6436C276.106 63.6276 274.842 60.8756 274.842 57.3876C274.842 53.6116 276.09 50.6356 278.586 48.4596C281.114 46.2516 284.362 45.1476 288.33 45.1476C292.074 45.1476 294.81 45.8196 296.538 47.1636C298.298 48.4756 299.178 50.2836 299.178 52.5876C299.178 53.0356 299.114 53.4676 298.986 53.8836C298.89 54.2996 298.714 54.7156 298.458 55.1316C298.234 55.5156 297.914 55.8836 297.498 56.2356C297.114 56.5556 296.666 56.8596 296.154 57.1476C295.642 57.4036 295.034 57.6116 294.33 57.7716C293.626 57.8996 292.874 57.9636 292.074 57.9636L285.306 58.0116C285.626 59.0356 286.202 59.8516 287.034 60.4596C287.866 61.0356 288.922 61.3236 290.202 61.3236C291.578 61.3236 292.986 61.1476 294.426 60.7956C295.034 60.6356 295.69 60.3796 296.394 60.0276C297.13 59.6756 297.658 59.4996 297.978 59.4996C298.522 59.4996 298.938 59.6596 299.226 59.9796C299.546 60.2996 299.706 60.6996 299.706 61.1796C299.706 61.7556 299.45 62.4596 298.938 63.2916C298.426 64.0916 297.706 64.9076 296.778 65.7396C295.882 66.5396 294.682 67.2276 293.178 67.8036C291.674 68.3796 290.058 68.6676 288.33 68.6676ZM285.066 54.9396C287.274 54.9076 288.474 54.8916 288.666 54.8916C289.146 54.8916 289.498 54.6036 289.722 54.0276C289.882 53.6116 289.962 53.0356 289.962 52.2996C289.962 50.2836 289.354 49.2756 288.138 49.2756C287.69 49.2756 287.242 49.5156 286.794 49.9956C286.378 50.4756 286.01 51.1636 285.69 52.0596C285.37 52.9236 285.162 53.8836 285.066 54.9396Z" fill="black"/>
<path d="M313.996 63.2436C313.996 65.1636 313.596 66.5076 312.797 67.2756C311.997 68.0116 310.573 68.3796 308.525 68.3796C306.637 68.3796 305.357 67.9476 304.685 67.0836C304.013 66.1876 303.677 64.7316 303.677 62.7156V50.9076C303.677 49.8196 303.868 48.8756 304.253 48.0756C304.637 47.2436 305.197 46.6036 305.932 46.1556C306.668 45.7076 307.533 45.4836 308.525 45.4836C310.957 45.4836 312.556 46.1876 313.324 47.5956C315.18 46.1876 316.973 45.4836 318.701 45.4836C322.06 45.4836 323.741 47.0836 323.741 50.2836C323.741 51.5636 323.372 52.6036 322.637 53.4036C321.901 54.2036 320.94 54.6036 319.757 54.6036C319.052 54.6036 318.477 54.4596 318.029 54.1716C317.612 53.8836 317.212 53.5956 316.828 53.3076C316.477 53.0196 316.061 52.8756 315.581 52.8756C314.876 52.8756 314.348 53.1156 313.996 53.5956V63.2436Z" fill="black"/>
</svg>
