<svg width="50" height="115" viewBox="0 0 50 115" fill="none" xmlns="http://www.w3.org/2000/svg">
<mask id="path-1-inside-1_166_308" fill="white">
<path fill-rule="evenodd" clip-rule="evenodd" d="M25.2241 0C19.0825 0 14.1038 4.97873 14.1038 11.1203V67.5698C5.75711 71.6059 0 80.1541 0 90.0471C0 103.828 11.1718 115 24.9528 115C38.7339 115 49.9057 103.828 49.9057 90.0471C49.9057 80.3699 44.397 71.9794 36.3443 67.8403V11.1203C36.3443 4.97872 31.3656 0 25.2241 0Z"/>
</mask>
<path d="M14.1038 67.5698L15.4098 70.2706L17.1038 69.4515V67.5698H14.1038ZM36.3443 67.8403H33.3443V69.6714L34.9729 70.5085L36.3443 67.8403ZM17.1038 11.1203C17.1038 6.63558 20.7394 3 25.2241 3V-3C17.4256 -3 11.1038 3.32188 11.1038 11.1203H17.1038ZM17.1038 67.5698V11.1203H11.1038V67.5698H17.1038ZM3 90.0471C3 81.348 8.0595 73.8249 15.4098 70.2706L12.7978 64.869C3.45472 69.3869 -3 78.9603 -3 90.0471H3ZM24.9528 112C12.8286 112 3 102.171 3 90.0471H-3C-3 105.485 9.51491 118 24.9528 118V112ZM46.9057 90.0471C46.9057 102.171 37.077 112 24.9528 112V118C40.3908 118 52.9057 105.485 52.9057 90.0471H46.9057ZM34.9729 70.5085C42.0648 74.1538 46.9057 81.5377 46.9057 90.0471H52.9057C52.9057 79.2022 46.7291 69.8051 37.7158 65.1721L34.9729 70.5085ZM33.3443 11.1203V67.8403H39.3443V11.1203H33.3443ZM25.2241 3C29.7088 3 33.3443 6.63557 33.3443 11.1203H39.3443C39.3443 3.32187 33.0225 -3 25.2241 -3V3Z" fill="black" mask="url(#path-1-inside-1_166_308)"/>
<circle cx="24.6815" cy="90.3186" r="14.375" fill="black"/>
<rect x="22.783" y="16.8159" width="4.33962" height="67.2642" rx="2.16981" fill="black"/>
<rect x="20.0708" y="48.2783" width="3" height="5.96698" transform="rotate(90 20.0708 48.2783)" fill="black"/>
<rect x="20.0708" y="40.6841" width="3" height="5.96698" transform="rotate(90 20.0708 40.6841)" fill="black"/>
<rect x="20.0708" y="33.0898" width="3" height="5.96698" transform="rotate(90 20.0708 33.0898)" fill="black"/>
<rect x="20.0708" y="25.4951" width="3" height="5.96698" transform="rotate(90 20.0708 25.4951)" fill="black"/>
</svg>
